<svg xmlns="http://www.w3.org/2000/svg" viewBox="0 0 64 64"><g id="_30-cooking_book" data-name="30-cooking book"><path d="M28,56H1V54s8-3,15-3C23.07,51,28,56,28,56Z" style="fill:#918778"/><path d="M63,54v2H36s4.93-5,12-5C55,51,63,54,63,54Z" style="fill:#918778"/><rect x="7" y="60" width="50" height="3" style="fill:#733125"/><path d="M57,56v4H7V56H28c0-1.11,1.79-2,4-2s4,.89,4,2Z" style="fill:#da684e"/><path d="M36,10.5v.18a19.606,19.606,0,0,0-3,2.29V10.5a1.5,1.5,0,0,1,3,0Z" style="fill:#da684e"/><path d="M57,1V11.87C54.21,10.15,49.79,8,45,8a16.946,16.946,0,0,0-9,2.68V10.5a1.5,1.5,0,0,0-3,0v2.47A12.821,12.821,0,0,0,32,14S27,8,19,8c-4.79,0-9.21,2.15-12,3.87V1Z" style="fill:#da684e"/><path d="M32,51v3c-2.21,0-4,.89-4,2,0,0-4.93-5-12-5C9,51,1,54,1,54V17l3-2V49a27.145,27.145,0,0,1,13-3C25,46,32,51,32,51Z" style="fill:#ded0b3"/><path d="M63,17V54s-8-3-15-3c-7.07,0-12,5-12,5,0-1.11-1.79-2-4-2V51s7-5,15-5a27.145,27.145,0,0,1,13,3V15Z" style="fill:#eddebf"/><path d="M18,31c-2.76,0-5,1.24-5,4a5,5,0,0,0,10,0C23,32.24,20.76,31,18,31Zm-1.31-7h5.54A2.783,2.783,0,0,0,25,21.2a2.612,2.612,0,0,0-2.31-2.4s-2.77.4-2.77-1.2S16.65,16,16.65,16C14.36,16,13,17.43,13,19.2,13,21.85,14.65,24,16.69,24ZM7,11.87C9.79,10.15,14.21,8,19,8c8,0,13,6,13,6V51s-7-5-15-5A27.145,27.145,0,0,0,4,49V14A26.423,26.423,0,0,1,7,11.87Z" style="fill:#ffe8b8"/><path d="M47,39c0-8-8-8-8-8C39,39,47,39,47,39Zm1-8c0,8,8,8,8,8C56,31,48,31,48,31Zm9-19.13A26.423,26.423,0,0,1,60,14V49a27.145,27.145,0,0,0-13-3c-8,0-15,5-15,5V14a12.821,12.821,0,0,1,1-1.03,19.606,19.606,0,0,1,3-2.29A16.946,16.946,0,0,1,45,8C49.79,8,54.21,10.15,57,11.87Z" style="fill:#ffebc2"/><path d="M16,51C9,51,1,54,1,54v2s8-3,15-3a17.453,17.453,0,0,1,9.452,3H28S23.07,51,16,51Z" style="fill:#696157"/><path d="M48,51c-7.07,0-12,5-12,5h2.548A17.453,17.453,0,0,1,48,53c7,0,15,3,15,3V54S55,51,48,51Z" style="fill:#696157"/><path d="M36,56c0-1.11-1.79-2-4-2s-4,.89-4,2H7v2H28c0-1.11,1.79-2,4-2s4,.89,4,2H57V56Z" style="fill:#a64f3c"/><path d="M32,11S27,5,19,5C14.21,5,9.79,7.15,7,8.87v3C9.79,10.15,14.21,8,19,8c8,0,13,6,13,6a12.821,12.821,0,0,1,1-1.03V10.5a1.479,1.479,0,0,1,.171-.682c-.055.049-.12.105-.171.152A12.821,12.821,0,0,0,32,11Z" style="fill:#a64f3c"/><path d="M45,5a16.946,16.946,0,0,0-9,2.68,18.942,18.942,0,0,0-1.966,1.4A1.482,1.482,0,0,1,36,10.5v.18A16.946,16.946,0,0,1,45,8c4.79,0,9.21,2.15,12,3.87v-3C54.21,7.15,49.79,5,45,5Z" style="fill:#a64f3c"/><path d="M32,51s-7-5-15-5A27.145,27.145,0,0,0,4,49V15L2,16.333V52s9.932-4.563,15-4a27.436,27.436,0,0,1,13.957,6.077A7.774,7.774,0,0,1,32,54Z" style="fill:#c1c4aa"/><path d="M62,52V16.333L60,15V49a27.145,27.145,0,0,0-13-3c-8,0-15,5-15,5v3a7.774,7.774,0,0,1,1.043.077A27.436,27.436,0,0,1,47,48C52.068,47.437,62,52,62,52Z" style="fill:#d0d4b8"/><path d="M24.719,42.511a20.271,20.271,0,0,1-6.247-2.559c-.157.015-.31.048-.472.048a5,5,0,0,1-5-5c0-.024.007-.043.007-.067A19.849,19.849,0,0,1,9,22.978V10.741c-.728.38-1.407.764-2,1.129A26.423,26.423,0,0,0,4,14V49a27.145,27.145,0,0,1,13-3c8,0,15,5,15,5V45A36.532,36.532,0,0,0,24.719,42.511Z" style="fill:#edd39c"/><path d="M54.719,42.511A20.241,20.241,0,0,1,47,38.946c0,.019,0,.035,0,.054,0,0-8,0-8-8a9.409,9.409,0,0,1,1.789.231A19.863,19.863,0,0,1,39,22.978V9.164a18.45,18.45,0,0,0-3,1.516,19.606,19.606,0,0,0-3,2.29A12.821,12.821,0,0,0,32,14V51s7-5,15-5a27.145,27.145,0,0,1,13,3V44.147A35.982,35.982,0,0,0,54.719,42.511Z" style="fill:#f0daad"/><path d="M19.92,17.6c0,1.6,2.77,1.2,2.77,1.2A2.612,2.612,0,0,1,25,21.2,2.783,2.783,0,0,1,22.23,24H16.69C14.65,24,13,21.85,13,19.2c0-1.77,1.36-3.2,3.65-3.2C16.65,16,19.92,16,19.92,17.6Z" style="fill:#ea735c"/><path d="M18,31c2.76,0,5,1.24,5,4a5,5,0,0,1-10,0C13,32.24,15.24,31,18,31Z" style="fill:#e84655"/><path d="M39,31l8,8S39,39,39,31Z" style="fill:#658f41"/><path d="M48,31l8,8S48,39,48,31Z" style="fill:#658f41"/><path d="M47,39l-8-8S47,31,47,39Z" style="fill:#96b343"/><path d="M56,39l-8-8S56,31,56,39Z" style="fill:#96b343"/><circle cx="17" cy="19" r="1" style="fill:#ffd0c9"/><path d="M19,38a5,5,0,0,1-5-5,4.377,4.377,0,0,1,.071-.676A3.579,3.579,0,0,0,13,35a4.993,4.993,0,0,0,9.855,1.147A4.967,4.967,0,0,1,19,38Z" style="fill:#c43b48"/><ellipse cx="20.577" cy="33.708" rx="0.825" ry="1.148" transform="translate(-17.811 24.436) rotate(-45.02)" style="fill:#f6fafd"/><path d="M18.451,11.134a1.341,1.341,0,0,0-.45.849,1.27,1.27,0,0,0,.27.771A5.051,5.051,0,0,0,20.2,14.16a14.037,14.037,0,0,1,4.827,3.846,27.337,27.337,0,0,0,2.441,3.376,1.511,1.511,0,0,0,1.591.534,1.218,1.218,0,0,0,.454-.4A3.969,3.969,0,0,0,30,19.157q-.009-1.265-.063-2.528a6.739,6.739,0,0,0-.209-1.618,5.119,5.119,0,0,0-1.843-2.447C25.612,10.744,20.923,8.659,18.451,11.134Z" style="fill:#fff3db"/><path d="M47.669,10.08a3.124,3.124,0,0,0-2.644,2.3,1.611,1.611,0,0,0,.23,1.182,2.176,2.176,0,0,0,.686.579,19.207,19.207,0,0,0,5.312,1.686,33.243,33.243,0,0,1,3.689,1.192c1.033.394,2.222,1.235,3.337.911a1.12,1.12,0,0,0,.455-.226c.5-.461.177-1.728-.046-2.254-1.017-2.4-3.965-3.862-6.34-4.65A9.793,9.793,0,0,0,47.669,10.08Z" style="fill:#fff3db"/><path d="M7,60v3H9a2,2,0,0,1,2-2H53a2,2,0,0,1,2,2h2V60Z" style="fill:#471e17"/><path d="M8,2H56V8h2V1a1,1,0,0,0-1-1H7A1,1,0,0,0,6,1V8H8Z"/><path d="M63.555,16.168,61,14.465V14a1,1,0,0,0-.35-.759C60.354,12.986,53.274,7,45,7a17.676,17.676,0,0,0-8.4,2.163A2.5,2.5,0,0,0,32,10.5v2.042A18.97,18.97,0,0,0,19,7C10.726,7,3.646,12.986,3.35,13.241A1,1,0,0,0,3,14v.465l-2.555,1.7A1,1,0,0,0,0,17V56a1,1,0,0,0,1,1H6v6a1,1,0,0,0,1,1H57a1,1,0,0,0,1-1V57h5a1,1,0,0,0,1-1V17A1,1,0,0,0,63.555,16.168ZM59,14.479V47.386A30.023,30.023,0,0,0,47,45c-6.032,0-11.429,2.672-14,4.182v-34.8a17.612,17.612,0,0,1,2-1.781V44h2V11.255A15.857,15.857,0,0,1,45,9C51.549,9,57.52,13.321,59,14.479ZM34,10.5a.5.5,0,0,1,.5-.5.493.493,0,0,1,.389.2q-.473.318-.889.631ZM5,14.479C6.48,13.321,12.451,9,19,9c6.494,0,10.96,4.285,12,5.386v34.8C28.429,47.672,23.032,45,17,45A30.023,30.023,0,0,0,5,47.386ZM2,17.535l1-.667V49a1,1,0,0,0,1.513.858A26.506,26.506,0,0,1,17,47c7.571,0,14.352,4.766,14.419,4.814a1,1,0,0,0,1.162,0C32.648,51.766,39.408,47,47,47a26.506,26.506,0,0,1,12.487,2.858A1,1,0,0,0,61,49V16.868l1,.667V52.6A48.8,48.8,0,0,0,48,50a19.048,19.048,0,0,0-11.715,4.409A6.15,6.15,0,0,0,32,53a6.15,6.15,0,0,0-4.285,1.409A19.048,19.048,0,0,0,16,50,48.8,48.8,0,0,0,2,52.6ZM2,54.708C4,54.022,10.378,52,16,52a16.588,16.588,0,0,1,9.134,3H2ZM56,59H16v2H56v1H8V61h2V59H8V57H28v-.01a.98.98,0,0,0,.38-.066A1,1,0,0,0,29,56c0-.249,1.064-1,3-1s3,.751,3,1a1,1,0,0,0,1,1H56ZM38.866,55A16.588,16.588,0,0,1,48,52c5.622,0,12,2.022,14,2.708V55Z"/><path d="M16.692,25H22.23A3.789,3.789,0,0,0,26,21.2a3.584,3.584,0,0,0-3.308-3.4,1.1,1.1,0,0,0-.14.01,2.359,2.359,0,0,1-1.629-.21c0-1.919-2.3-2.6-4.271-2.6C13.957,15,12,16.767,12,19.2,12,22.4,14.105,25,16.692,25Zm-.04-8c1.149,0,2.271.379,2.271.6a1.993,1.993,0,0,0,.7,1.553,4.37,4.37,0,0,0,3.119.65A1.675,1.675,0,0,1,24,21.2,1.788,1.788,0,0,1,22.23,23H16.692C15.233,23,14,21.26,14,19.2,14,17.863,15.041,17,16.652,17Z"/><rect x="16" y="18" width="2" height="2"/><path d="M24,35a4.739,4.739,0,0,0-3.87-4.724A6.022,6.022,0,0,1,22,30V28a7.519,7.519,0,0,0-3,.579V27H17v1.389A9.37,9.37,0,0,0,14,28v2a8.363,8.363,0,0,1,2.165.21C13.6,30.769,12,32.515,12,35a6,6,0,0,0,12,0ZM14,35c0-2.708,2.8-3,4-3s4,.292,4,3a4,4,0,0,1-8,0Z"/><path d="M46,19a30.177,30.177,0,0,1,9.629,1.929l.742-1.858A31.728,31.728,0,0,0,46,17c-5.177,0-7.356,1.061-7.447,1.105l.894,1.79C39.465,19.886,41.365,19,46,19Z"/><path d="M46,22a30.177,30.177,0,0,1,9.629,1.929l.742-1.858A31.728,31.728,0,0,0,46,20c-5.177,0-7.356,1.061-7.447,1.105l.894,1.79C39.465,22.886,41.365,22,46,22Z"/><path d="M46,25a30.177,30.177,0,0,1,9.629,1.929l.742-1.858A31.728,31.728,0,0,0,46,23c-5.177,0-7.356,1.061-7.447,1.105l.894,1.79C39.465,25.886,41.365,25,46,25Z"/><path d="M47,40a1,1,0,0,0,1-1c0-7.119-5.887-9-9-9a1,1,0,0,0-1,1C38,38.119,43.887,40,47,40Zm-6.482-6.068,3.388,3.388A6.069,6.069,0,0,1,40.518,33.932Zm4.964,2.136L42.094,32.68A6.069,6.069,0,0,1,45.482,36.068Z"/><path d="M48,30a1,1,0,0,0-1,1c0,7.119,5.887,9,9,9a1,1,0,0,0,1-1C57,31.881,51.113,30,48,30Zm6.482,6.068L51.094,32.68A6.069,6.069,0,0,1,54.482,36.068Zm-4.964-2.136,3.388,3.388A6.069,6.069,0,0,1,49.518,33.932Z"/><rect x="12" y="59" width="2" height="2"/></g></svg>